<svg xmlns="http://www.w3.org/2000/svg" width="1000" height="203.8573" viewBox="0 0 1000 203.8573"><title>Artboard 1</title><path d="M0,101.92865C0,45.635,45.49439,0,101.61463,0c56.11988,0,101.61464,45.63493,101.61464,101.92865S157.73451,203.8573,101.61463,203.8573C45.49439,203.8573,0,158.22223,0,101.92865Z" fill="#c8252c"/><polygon points="142.643 47.531 117.69 125.39 117.39 125.39 98.324 68.815 35.366 68.815 35.366 83.242 79.229 83.242 83.168 94.351 46.26 94.351 46.26 108.777 88.283 108.777 91.53 117.938 34.611 117.938 34.611 132.365 96.645 132.365 104.751 155.229 128.631 155.229 167.004 47.531 142.643 47.531 142.643 47.531" fill="#fff"/><polyline points="230.693 155.617 230.693 47.886 309.793 47.886 309.793 62.223 246.11 62.223 246.11 94.144 303.077 94.144 303.077 108.479 246.11 108.479 246.11 141.282 310.535 141.282 310.535 155.617 230.693 155.617" fill="#c8252c" fill-rule="evenodd"/><polygon points="352.605 125.295 330.195 155.58 313.293 155.58 344.019 114.522 314.466 74.81 331.639 74.81 352.9 103.474 374.158 74.81 391.073 74.81 361.348 114.237 392.207 155.58 374.877 155.58 352.605 125.295 352.605 125.295 352.605 125.295" fill="#c8252c" fill-rule="evenodd"/><path d="M394.99266,177.58382V75.02625h14.80568V86.67357c7.40424-8.91613,16.33021-13.25618,27.13743-13.25618,18.35171,0,37.85361,14.3593,37.85361,40.973v.28428c0,26.70918-19.5019,41.11724-37.85361,41.11724-10.78309,0-19.88651-4.24373-27.13743-12.63457v34.42645H394.99266m39.903-90.50556c-12.28432,0-25.54043,10.44313-25.54043,27.31216v.28428c0,17.19606,12.98669,27.46539,25.54043,27.46539,14.59852,0,24.79445-11.23271,24.79445-27.30651v-.29916c0-15.91958-10.4319-27.45616-24.79445-27.45616" fill="#c8252c" fill-rule="evenodd"/><path d="M477.62008,155.57085V75.05307H492.6822V89.7906c6.65081-10.19083,16.80958-16.0947,28.20208-16.0947.4645,0,.92992.00985,1.39907.02946l1.73726.06855V89.69752H521.32c-17.39673,0-28.63778,13.11555-28.63778,33.42378v32.44955H477.62008" fill="#c8252c" fill-rule="evenodd"/><path d="M538.92294,108.96592c2.12282-12.70332,10.95311-21.397,22-21.397,13.65,0,20.03322,10.71518,21.61443,21.397ZM561.21,74.77058c-21.18985,0-37.17078,17.35937-37.17078,40.36862,0,23.00425,16.59218,40.36846,38.60144,40.36846,12.98669,0,22.77666-4.46762,31.72494-14.46195l1.16779-1.30064-9.41369-8.43915-1.16779,1.23c-6.43438,6.753-13.43822,9.90048-22.0232,9.90048-12.512,0-21.95358-8.41593-24.0197-21.12486h58.19623l.13195-1.59229c.14584-1.7958.14584-2.97377.14584-4.00967,0-24.48412-14.53076-40.939-36.173-40.939Z" fill="#c8252c" fill-rule="evenodd"/><path d="M601.44092,144.32422l-1.27274-1.03216,7.58266-10.71153,1.44274,1.0795c7.957,5.97634,16.48161,9.13963,24.65045,9.13963,8.14186,0,13.61008-4.03,13.61008-10.03519v-.29357c0-6.085-7.474-8.66585-17.24255-11.38876-10.89925-3.10665-25.8284-7.34479-25.8284-22.67911v-.28428c0-13.56778,11.11194-23.02961,27.01569-23.02961A52.35255,52.35255,0,0,1,659.077,83.57067l1.39539.93293-6.82086,11.314-1.5143-.97639c-6.78831-4.38486-14.45171-6.8995-21.02728-6.8995-7.5306,0-12.60208,3.62749-12.60208,9.026v.2889c0,5.67813,8.5339,8.27842,17.57416,11.03391l.28334.08545c9.98225,2.9933,25.07686,7.525,25.07686,22.94014v.30288c0,14.37278-11.32928,24.02894-28.17049,24.02894a52.84034,52.84034,0,0,1-31.83082-11.32372Z" fill="#c8252c" fill-rule="evenodd"/><path d="M697.33192,155.64794a52.87782,52.87782,0,0,1-31.841-11.32372l-1.26344-1.03216,7.578-10.71153,1.438,1.0795c7.96172,5.97634,16.491,9.13963,24.66078,9.13963,8.1363,0,13.60911-4.03,13.60911-10.03519v-.29357c0-6.085-7.4739-8.66585-17.2425-11.38876-10.90383-3.10665-25.8331-7.34479-25.8331-22.67911v-.28428c0-13.56778,11.11659-23.02961,27.0204-23.02961a52.39,52.39,0,0,1,27.67809,8.48153l1.39533.93293-6.82074,11.314-1.5143-.97639c-6.793-4.38486-14.46107-6.8995-21.02637-6.8995-7.54082,0-12.60208,3.62749-12.60208,9.026v.2889c0,5.67813,8.53384,8.27842,17.56848,11.03391l.289.08545c9.9767,2.9933,25.076,7.525,25.076,22.94014v.30288c0,14.37278-11.32934,24.02894-28.16959,24.02894" fill="#c8252c" fill-rule="evenodd"/><path d="M890.238,83.46132c0,12.81707-10.39936,21.09181-26.48053,21.09181H840.06288v-42.184h24.28161c16.45468,0,25.89349,7.58421,25.89349,20.798v.29412Zm-25.01-35.57474h-40.3879V155.61542h15.22281V118.88965h23.24764c21.06068,0,42.29985-11.08778,42.29985-35.87415v-.29423c0-21.16537-15.848-34.83469-40.3824-34.83469Z" fill="#c8252c" fill-rule="evenodd"/><polyline points="987.96 155.615 923.493 73.672 923.493 155.615 908.438 155.615 908.438 47.886 922.113 47.886 984.941 127.895 984.941 47.886 1000 47.886 1000 155.615 987.96 155.615" fill="#c8252c" fill-rule="evenodd"/><polygon points="777.418 155.58 822.204 47.961 804.156 47.961 768.283 136.195 732.632 47.961 714.361 47.961 759.147 155.58 777.418 155.58 777.418 155.58 777.418 155.58" fill="#c8252c" fill-rule="evenodd"/></svg>